<mxfile host="Electron" modified="2024-06-21T11:26:40.380Z" agent="Mozilla/5.0 (Windows NT 10.0; Win64; x64) AppleWebKit/537.36 (KHTML, like Gecko) draw.io/24.5.3 Chrome/124.0.6367.207 Electron/30.0.6 Safari/537.36" etag="PdwDcoOK0wmJeyynZAgs" version="24.5.3" type="device">
  <diagram name="Seite-1" id="T95T-MAoptsZgxDkhdr3">
    <mxGraphModel dx="1059" dy="752" grid="1" gridSize="10" guides="1" tooltips="1" connect="1" arrows="1" fold="1" page="1" pageScale="1" pageWidth="827" pageHeight="1169" math="0" shadow="0">
      <root>
        <mxCell id="0" />
        <mxCell id="1" parent="0" />
        <mxCell id="CbMV93YRRMkIrPk-7vgo-9" value="&lt;font style=&quot;font-size: 24px;&quot;&gt;Lackierfehler&lt;/font&gt;" style="rounded=1;whiteSpace=wrap;html=1;fillColor=#f8cecc;strokeColor=#b85450;glass=0;strokeWidth=1;shadow=0;" vertex="1" parent="1">
          <mxGeometry x="630" y="410" width="200" height="60" as="geometry" />
        </mxCell>
        <mxCell id="CbMV93YRRMkIrPk-7vgo-10" value="" style="endArrow=classic;html=1;rounded=0;entryX=0;entryY=0.5;entryDx=0;entryDy=0;spacing=2;strokeWidth=1;shape=flexArrow;startSize=6;endSize=6;fillColor=#f8cecc;strokeColor=#b85450;" edge="1" parent="1" target="CbMV93YRRMkIrPk-7vgo-9">
          <mxGeometry width="50" height="50" relative="1" as="geometry">
            <mxPoint x="300" y="440" as="sourcePoint" />
            <mxPoint x="340" y="430" as="targetPoint" />
          </mxGeometry>
        </mxCell>
        <mxCell id="CbMV93YRRMkIrPk-7vgo-11" value="" style="endArrow=classic;html=1;rounded=0;spacing=2;strokeWidth=1;shape=flexArrow;startSize=6;endSize=6;fillColor=#ffe6cc;strokeColor=#d79b00;" edge="1" parent="1">
          <mxGeometry width="50" height="50" relative="1" as="geometry">
            <mxPoint x="440" y="220" as="sourcePoint" />
            <mxPoint x="590" y="440" as="targetPoint" />
          </mxGeometry>
        </mxCell>
        <mxCell id="CbMV93YRRMkIrPk-7vgo-12" value="&lt;font style=&quot;font-size: 20px;&quot;&gt;Maschine&lt;/font&gt;" style="rounded=1;whiteSpace=wrap;html=1;fillColor=#ffe6cc;strokeColor=#d79b00;" vertex="1" parent="1">
          <mxGeometry x="330" y="210" width="150" height="30" as="geometry" />
        </mxCell>
        <mxCell id="CbMV93YRRMkIrPk-7vgo-25" value="" style="endArrow=classic;html=1;rounded=0;spacing=2;strokeWidth=1;shape=flexArrow;startSize=6;endSize=6;fillColor=#ffe6cc;strokeColor=#d79b00;" edge="1" parent="1">
          <mxGeometry width="50" height="50" relative="1" as="geometry">
            <mxPoint x="440" y="655" as="sourcePoint" />
            <mxPoint x="590" y="440" as="targetPoint" />
          </mxGeometry>
        </mxCell>
        <mxCell id="CbMV93YRRMkIrPk-7vgo-20" value="&lt;font style=&quot;font-size: 20px;&quot;&gt;Mensch&lt;/font&gt;" style="rounded=1;whiteSpace=wrap;html=1;fillColor=#ffe6cc;strokeColor=#d79b00;" vertex="1" parent="1">
          <mxGeometry x="330" y="640" width="150" height="30" as="geometry" />
        </mxCell>
        <mxCell id="CbMV93YRRMkIrPk-7vgo-29" value="" style="endArrow=classic;html=1;rounded=0;spacing=2;strokeWidth=1;shape=flexArrow;startSize=6;endSize=6;fillColor=#ffe6cc;strokeColor=#d79b00;" edge="1" parent="1">
          <mxGeometry width="50" height="50" relative="1" as="geometry">
            <mxPoint x="160" y="655" as="sourcePoint" />
            <mxPoint x="310" y="440" as="targetPoint" />
          </mxGeometry>
        </mxCell>
        <mxCell id="CbMV93YRRMkIrPk-7vgo-30" value="" style="endArrow=classic;html=1;rounded=0;spacing=2;strokeWidth=1;shape=flexArrow;startSize=6;endSize=6;fillColor=#ffe6cc;strokeColor=#d79b00;" edge="1" parent="1">
          <mxGeometry width="50" height="50" relative="1" as="geometry">
            <mxPoint x="160" y="220" as="sourcePoint" />
            <mxPoint x="310" y="440" as="targetPoint" />
          </mxGeometry>
        </mxCell>
        <mxCell id="CbMV93YRRMkIrPk-7vgo-14" value="&lt;font style=&quot;font-size: 20px;&quot;&gt;Material&lt;/font&gt;" style="rounded=1;whiteSpace=wrap;html=1;fillColor=#ffe6cc;strokeColor=#d79b00;" vertex="1" parent="1">
          <mxGeometry x="50" y="210" width="150" height="30" as="geometry" />
        </mxCell>
        <mxCell id="CbMV93YRRMkIrPk-7vgo-15" value="&lt;font style=&quot;font-size: 20px;&quot;&gt;Methode&lt;/font&gt;" style="rounded=1;whiteSpace=wrap;html=1;fillColor=#ffe6cc;strokeColor=#d79b00;" vertex="1" parent="1">
          <mxGeometry x="50" y="640" width="150" height="30" as="geometry" />
        </mxCell>
        <mxCell id="CbMV93YRRMkIrPk-7vgo-31" value="" style="endArrow=classic;html=1;rounded=0;fillColor=#fff2cc;strokeColor=#d6b656;shape=flexArrow;width=4.722222222222222;endSize=3.5916666666666663;startSize=3;endWidth=10.07716049382716;" edge="1" parent="1">
          <mxGeometry width="50" height="50" relative="1" as="geometry">
            <mxPoint x="361" y="400" as="sourcePoint" />
            <mxPoint x="561" y="400" as="targetPoint" />
          </mxGeometry>
        </mxCell>
        <mxCell id="CbMV93YRRMkIrPk-7vgo-32" value="Lack zu dÃ¼nn" style="text;html=1;align=left;verticalAlign=middle;whiteSpace=wrap;rounded=0;fontSize=16;" vertex="1" parent="1">
          <mxGeometry y="250" width="150" height="30" as="geometry" />
        </mxCell>
        <mxCell id="CbMV93YRRMkIrPk-7vgo-33" value="" style="endArrow=classic;html=1;rounded=0;fillColor=#fff2cc;strokeColor=#d6b656;shape=flexArrow;width=4.722222222222222;endSize=3.5916666666666663;startSize=3;endWidth=10.07716049382716;" edge="1" parent="1">
          <mxGeometry width="50" height="50" relative="1" as="geometry">
            <mxPoint x="333" y="360" as="sourcePoint" />
            <mxPoint x="533" y="360" as="targetPoint" />
          </mxGeometry>
        </mxCell>
        <mxCell id="CbMV93YRRMkIrPk-7vgo-34" value="" style="endArrow=classic;html=1;rounded=0;fillColor=#fff2cc;strokeColor=#d6b656;shape=flexArrow;width=4.722222222222222;endSize=3.5916666666666663;startSize=3;endWidth=10.07716049382716;" edge="1" parent="1">
          <mxGeometry width="50" height="50" relative="1" as="geometry">
            <mxPoint x="306" y="320" as="sourcePoint" />
            <mxPoint x="506" y="320" as="targetPoint" />
          </mxGeometry>
        </mxCell>
        <mxCell id="CbMV93YRRMkIrPk-7vgo-35" value="" style="endArrow=classic;html=1;rounded=0;fillColor=#fff2cc;strokeColor=#d6b656;shape=flexArrow;width=4.722222222222222;endSize=3.5916666666666663;startSize=3;endWidth=10.07716049382716;" edge="1" parent="1">
          <mxGeometry width="50" height="50" relative="1" as="geometry">
            <mxPoint x="279" y="280" as="sourcePoint" />
            <mxPoint x="479" y="280" as="targetPoint" />
          </mxGeometry>
        </mxCell>
        <mxCell id="CbMV93YRRMkIrPk-7vgo-36" value="" style="endArrow=classic;html=1;rounded=0;fillColor=#fff2cc;strokeColor=#d6b656;shape=flexArrow;width=4.722222222222222;endSize=3.5916666666666663;startSize=3;endWidth=10.07716049382716;" edge="1" parent="1">
          <mxGeometry width="50" height="50" relative="1" as="geometry">
            <mxPoint x="82" y="400" as="sourcePoint" />
            <mxPoint x="282" y="400" as="targetPoint" />
          </mxGeometry>
        </mxCell>
        <mxCell id="CbMV93YRRMkIrPk-7vgo-37" value="" style="endArrow=classic;html=1;rounded=0;fillColor=#fff2cc;strokeColor=#d6b656;shape=flexArrow;width=4.722222222222222;endSize=3.5916666666666663;startSize=3;endWidth=10.07716049382716;" edge="1" parent="1">
          <mxGeometry width="50" height="50" relative="1" as="geometry">
            <mxPoint x="54" y="360" as="sourcePoint" />
            <mxPoint x="254" y="360" as="targetPoint" />
          </mxGeometry>
        </mxCell>
        <mxCell id="CbMV93YRRMkIrPk-7vgo-38" value="" style="endArrow=classic;html=1;rounded=0;fillColor=#fff2cc;strokeColor=#d6b656;shape=flexArrow;width=4.722222222222222;endSize=3.5916666666666663;startSize=3;endWidth=10.07716049382716;" edge="1" parent="1">
          <mxGeometry width="50" height="50" relative="1" as="geometry">
            <mxPoint x="27" y="320" as="sourcePoint" />
            <mxPoint x="227" y="320" as="targetPoint" />
          </mxGeometry>
        </mxCell>
        <mxCell id="CbMV93YRRMkIrPk-7vgo-39" value="" style="endArrow=classic;html=1;rounded=0;fillColor=#fff2cc;strokeColor=#d6b656;shape=flexArrow;width=4.722222222222222;endSize=3.5916666666666663;startSize=3;endWidth=10.07716049382716;" edge="1" parent="1">
          <mxGeometry width="50" height="50" relative="1" as="geometry">
            <mxPoint y="280" as="sourcePoint" />
            <mxPoint x="200" y="280" as="targetPoint" />
          </mxGeometry>
        </mxCell>
        <mxCell id="CbMV93YRRMkIrPk-7vgo-40" value="" style="endArrow=classic;html=1;rounded=0;fillColor=#fff2cc;strokeColor=#d6b656;shape=flexArrow;width=4.722222222222222;endSize=3.5916666666666663;startSize=3;endWidth=10.07716049382716;" edge="1" parent="1">
          <mxGeometry width="50" height="50" relative="1" as="geometry">
            <mxPoint x="278" y="600" as="sourcePoint" />
            <mxPoint x="478" y="600" as="targetPoint" />
          </mxGeometry>
        </mxCell>
        <mxCell id="CbMV93YRRMkIrPk-7vgo-41" value="" style="endArrow=classic;html=1;rounded=0;fillColor=#fff2cc;strokeColor=#d6b656;shape=flexArrow;width=4.722222222222222;endSize=3.5916666666666663;startSize=3;endWidth=10.07716049382716;" edge="1" parent="1">
          <mxGeometry width="50" height="50" relative="1" as="geometry">
            <mxPoint x="305" y="560" as="sourcePoint" />
            <mxPoint x="505" y="560" as="targetPoint" />
          </mxGeometry>
        </mxCell>
        <mxCell id="CbMV93YRRMkIrPk-7vgo-42" value="" style="endArrow=classic;html=1;rounded=0;fillColor=#fff2cc;strokeColor=#d6b656;shape=flexArrow;width=4.722222222222222;endSize=3.5916666666666663;startSize=3;endWidth=10.07716049382716;" edge="1" parent="1">
          <mxGeometry width="50" height="50" relative="1" as="geometry">
            <mxPoint x="333" y="520" as="sourcePoint" />
            <mxPoint x="533" y="520" as="targetPoint" />
          </mxGeometry>
        </mxCell>
        <mxCell id="CbMV93YRRMkIrPk-7vgo-43" value="" style="endArrow=classic;html=1;rounded=0;fillColor=#fff2cc;strokeColor=#d6b656;shape=flexArrow;width=4.722222222222222;endSize=3.5916666666666663;startSize=3;endWidth=10.07716049382716;" edge="1" parent="1">
          <mxGeometry width="50" height="50" relative="1" as="geometry">
            <mxPoint x="361" y="480" as="sourcePoint" />
            <mxPoint x="561" y="480" as="targetPoint" />
          </mxGeometry>
        </mxCell>
        <mxCell id="CbMV93YRRMkIrPk-7vgo-60" value="" style="endArrow=classic;html=1;rounded=0;fillColor=#fff2cc;strokeColor=#d6b656;shape=flexArrow;width=4.722222222222222;endSize=3.5916666666666663;startSize=3;endWidth=10.07716049382716;" edge="1" parent="1">
          <mxGeometry width="50" height="50" relative="1" as="geometry">
            <mxPoint y="600" as="sourcePoint" />
            <mxPoint x="200" y="600" as="targetPoint" />
          </mxGeometry>
        </mxCell>
        <mxCell id="CbMV93YRRMkIrPk-7vgo-61" value="" style="endArrow=classic;html=1;rounded=0;fillColor=#fff2cc;strokeColor=#d6b656;shape=flexArrow;width=4.722222222222222;endSize=3.5916666666666663;startSize=3;endWidth=10.07716049382716;" edge="1" parent="1">
          <mxGeometry width="50" height="50" relative="1" as="geometry">
            <mxPoint x="27" y="560" as="sourcePoint" />
            <mxPoint x="227" y="560" as="targetPoint" />
          </mxGeometry>
        </mxCell>
        <mxCell id="CbMV93YRRMkIrPk-7vgo-62" value="" style="endArrow=classic;html=1;rounded=0;fillColor=#fff2cc;strokeColor=#d6b656;shape=flexArrow;width=4.722222222222222;endSize=3.5916666666666663;startSize=3;endWidth=10.07716049382716;" edge="1" parent="1">
          <mxGeometry width="50" height="50" relative="1" as="geometry">
            <mxPoint x="55" y="520" as="sourcePoint" />
            <mxPoint x="255" y="520" as="targetPoint" />
          </mxGeometry>
        </mxCell>
        <mxCell id="CbMV93YRRMkIrPk-7vgo-63" value="" style="endArrow=classic;html=1;rounded=0;fillColor=#fff2cc;strokeColor=#d6b656;shape=flexArrow;width=4.722222222222222;endSize=3.5916666666666663;startSize=3;endWidth=10.07716049382716;" edge="1" parent="1">
          <mxGeometry width="50" height="50" relative="1" as="geometry">
            <mxPoint x="83" y="480" as="sourcePoint" />
            <mxPoint x="283" y="480" as="targetPoint" />
          </mxGeometry>
        </mxCell>
        <mxCell id="CbMV93YRRMkIrPk-7vgo-64" value="Lack zu kalt" style="text;html=1;align=left;verticalAlign=middle;whiteSpace=wrap;rounded=0;fontSize=16;" vertex="1" parent="1">
          <mxGeometry x="28" y="290" width="150" height="30" as="geometry" />
        </mxCell>
        <mxCell id="CbMV93YRRMkIrPk-7vgo-65" value="Blech verschmutzt" style="text;html=1;align=left;verticalAlign=middle;whiteSpace=wrap;rounded=0;fontSize=16;" vertex="1" parent="1">
          <mxGeometry x="55" y="330" width="150" height="30" as="geometry" />
        </mxCell>
        <mxCell id="CbMV93YRRMkIrPk-7vgo-66" value="Fehlende Wartung" style="text;html=1;align=left;verticalAlign=middle;whiteSpace=wrap;rounded=0;fontSize=16;" vertex="1" parent="1">
          <mxGeometry x="280" y="250" width="150" height="30" as="geometry" />
        </mxCell>
        <mxCell id="CbMV93YRRMkIrPk-7vgo-67" value="Falsche SpritzdÃ¼se" style="text;html=1;align=left;verticalAlign=middle;whiteSpace=wrap;rounded=0;fontSize=16;" vertex="1" parent="1">
          <mxGeometry x="307" y="290" width="150" height="30" as="geometry" />
        </mxCell>
        <mxCell id="CbMV93YRRMkIrPk-7vgo-68" value="zu geringer Druck" style="text;html=1;align=left;verticalAlign=middle;whiteSpace=wrap;rounded=0;fontSize=16;" vertex="1" parent="1">
          <mxGeometry x="334" y="330" width="150" height="30" as="geometry" />
        </mxCell>
        <mxCell id="CbMV93YRRMkIrPk-7vgo-69" value="Fehlendes Know-How" style="text;html=1;align=left;verticalAlign=middle;whiteSpace=wrap;rounded=0;fontSize=16;" vertex="1" parent="1">
          <mxGeometry x="279" y="570" width="181" height="30" as="geometry" />
        </mxCell>
        <mxCell id="CbMV93YRRMkIrPk-7vgo-70" value="Bedienfehler" style="text;html=1;align=left;verticalAlign=middle;whiteSpace=wrap;rounded=0;fontSize=16;" vertex="1" parent="1">
          <mxGeometry x="304" y="530" width="181" height="30" as="geometry" />
        </mxCell>
        <mxCell id="CbMV93YRRMkIrPk-7vgo-71" value="Blech liegend lackiert" style="text;html=1;align=left;verticalAlign=middle;whiteSpace=wrap;rounded=0;fontSize=16;" vertex="1" parent="1">
          <mxGeometry y="570" width="181" height="30" as="geometry" />
        </mxCell>
        <mxCell id="CbMV93YRRMkIrPk-7vgo-72" value="UngleichmÃ¤Ãige Bewegung" style="text;html=1;align=left;verticalAlign=middle;whiteSpace=wrap;rounded=0;fontSize=16;" vertex="1" parent="1">
          <mxGeometry x="28" y="530" width="202" height="30" as="geometry" />
        </mxCell>
      </root>
    </mxGraphModel>
  </diagram>
</mxfile>
